<svg xmlns="http://www.w3.org/2000/svg" viewBox="0 0 750 500"><g id="freepik--background-complete--inject-14"><rect x="59.48" y="186.31" width="97.79" height="181.87" style="fill:#ebebeb"></rect><rect x="54.74" y="181.29" width="107.26" height="5.02" style="fill:#dbdbdb"></rect><rect x="162" y="181.29" width="33.73" height="5.02" style="fill:#ebebeb"></rect><rect x="157.27" y="186.31" width="33.13" height="181.87" style="fill:#dbdbdb"></rect><path d="M146.74,249H70V205.57h76.74Zm-76.49-.25h76.24V205.82H70.25Z" style="fill:#c7c7c7"></path><rect x="97.66" y="218.25" width="14.94" height="8.59" style="fill:#c7c7c7"></rect><path d="M117.14,226.31H102v-7.54h15.18Zm-14.93-.25h14.68v-7H102.21Z" style="fill:#c7c7c7"></path><path d="M146.74,303.43H70V260.05h76.74Zm-76.49-.25h76.24V260.3H70.25Z" style="fill:#c7c7c7"></path><rect x="97.66" y="272.73" width="14.94" height="8.59" style="fill:#c7c7c7"></rect><path d="M117.14,280.8H102v-7.55h15.18Zm-14.93-.25h14.68V273.5H102.21Z" style="fill:#c7c7c7"></path><path d="M146.74,357.91H70V314.53h76.74Zm-76.49-.25h76.24V314.78H70.25Z" style="fill:#c7c7c7"></path><rect x="97.66" y="327.21" width="14.94" height="8.59" style="fill:#c7c7c7"></rect><path d="M117.14,335.28H102v-7.54h15.18ZM102.21,335h14.68v-7H102.21Z" style="fill:#c7c7c7"></path><rect x="559" y="239.31" width="97.79" height="128.87" style="fill:#ebebeb"></rect><rect x="554.26" y="234.29" width="107.26" height="5.02" style="fill:#dbdbdb"></rect><rect x="661.52" y="234.29" width="33.73" height="5.02" style="fill:#ebebeb"></rect><rect x="656.79" y="239.31" width="33.13" height="128.87" style="fill:#dbdbdb"></rect><rect x="569.65" y="258.7" width="76.49" height="43.12" style="fill:#a6a6a6"></rect><rect x="580.46" y="247.66" width="58.23" height="42.21" style="fill:#c7c7c7"></rect><polygon points="601.03 243.28 580.46 243.28 580.46 247.66 602.22 247.66 601.03 243.28" style="fill:#c7c7c7"></polygon><polygon points="638.53 289.86 580.31 289.86 575.82 251.16 634.04 251.16 638.53 289.86" style="fill:#a6a6a6"></polygon><polygon points="595.92 247.15 575.35 247.15 575.82 251.16 597.57 251.16 595.92 247.15" style="fill:#a6a6a6"></polygon><rect x="532.8" y="258.7" width="76.49" height="43.12" style="fill:#ebebeb"></rect><path d="M609.41,302H532.68V258.57h76.73Zm-76.48-.25h76.23V258.82H532.93Z" style="fill:#c7c7c7"></path><rect x="560.34" y="271.25" width="14.94" height="8.59" style="fill:#c7c7c7"></rect><path d="M579.81,279.32H564.63v-7.55h15.18Zm-14.93-.25h14.68V272H564.88Z" style="fill:#c7c7c7"></path><rect x="609.48" y="265.16" width="36.66" height="36.66" style="fill:#dbdbdb"></rect><path d="M646.26,356.43H569.52V313.05h76.74Zm-76.49-.25H646V313.3H569.77Z" style="fill:#c7c7c7"></path><rect x="597.18" y="325.73" width="14.94" height="8.59" style="fill:#c7c7c7"></rect><path d="M616.66,333.8H601.48v-7.55h15.18Zm-14.93-.25h14.68V326.5H601.73Z" style="fill:#c7c7c7"></path></g><g id="freepik--Floor--inject-14"><polygon points="49.03 368.18 130.53 367.94 212.02 367.85 375 367.68 537.98 367.85 619.47 367.94 700.97 368.18 619.47 368.43 537.98 368.51 375 368.68 212.02 368.51 130.53 368.42 49.03 368.18" style="fill:#263238"></polygon></g><g id="freepik--Shadow--inject-14"><ellipse cx="375" cy="427.41" rx="286.74" ry="31.42" style="fill:#ebebeb"></ellipse></g><g id="freepik--Documents--inject-14"><rect x="235.13" y="139.45" width="115.66" height="148.48" style="fill:#ebebeb"></rect><path d="M350.79,287.93l-57.74.2-57.92.11h-.32v-.32l-.17-148.48V139h.49l115.66.12h.38v.37L351,213.79Zm0,0-.25-74.34-.12-74.14.37.38-115.66.11.49-.49-.18,148.48-.31-.32,57.75.12Z" style="fill:#dbdbdb"></path><polygon points="247.78 171.19 292.96 171.07 338.14 171.19 292.96 171.3 247.78 171.19" style="fill:#c7c7c7"></polygon><polygon points="247.78 174.87 292.96 174.76 338.14 174.87 292.96 174.99 247.78 174.87" style="fill:#c7c7c7"></polygon><polygon points="247.78 178.56 292.96 178.44 338.14 178.56 292.96 178.67 247.78 178.56" style="fill:#c7c7c7"></polygon><polygon points="247.78 182.24 292.96 182.13 338.14 182.24 292.96 182.35 247.78 182.24" style="fill:#c7c7c7"></polygon><polygon points="247.78 185.93 292.96 185.81 338.14 185.93 292.96 186.04 247.78 185.93" style="fill:#c7c7c7"></polygon><polygon points="247.78 189.61 292.96 189.5 338.14 189.61 292.96 189.72 247.78 189.61" style="fill:#c7c7c7"></polygon><polygon points="247.78 193.29 292.96 193.18 338.14 193.29 292.96 193.41 247.78 193.29" style="fill:#c7c7c7"></polygon><polygon points="247.78 196.98 292.96 196.87 338.14 196.98 292.96 197.09 247.78 196.98" style="fill:#c7c7c7"></polygon><polygon points="247.78 200.66 292.96 200.55 338.14 200.66 292.96 200.78 247.78 200.66" style="fill:#c7c7c7"></polygon><polygon points="247.78 204.35 292.96 204.23 338.14 204.35 292.96 204.46 247.78 204.35" style="fill:#c7c7c7"></polygon><polygon points="247.78 208.03 292.96 207.92 338.14 208.03 292.96 208.15 247.78 208.03" style="fill:#c7c7c7"></polygon><polygon points="247.78 211.72 292.96 211.6 338.14 211.72 292.96 211.83 247.78 211.72" style="fill:#c7c7c7"></polygon><polygon points="247.78 215.4 292.96 215.29 338.14 215.4 292.96 215.52 247.78 215.4" style="fill:#c7c7c7"></polygon><polygon points="247.78 219.09 292.96 218.97 338.14 219.09 292.96 219.2 247.78 219.09" style="fill:#c7c7c7"></polygon><polygon points="247.78 222.77 292.96 222.66 338.14 222.77 292.96 222.89 247.78 222.77" style="fill:#c7c7c7"></polygon><rect x="257.34" y="211.6" width="6.85" height="15.46" style="fill:#D1AE54"></rect><rect x="270.05" y="203.35" width="6.85" height="23.71" style="fill:#D1AE54"></rect><rect x="282.76" y="194.12" width="6.85" height="32.95" style="fill:#D1AE54"></rect><rect x="295.47" y="190.16" width="6.85" height="36.91" style="fill:#D1AE54"></rect><rect x="308.18" y="183.09" width="6.85" height="43.98" style="fill:#D1AE54"></rect><rect x="320.89" y="176.1" width="6.85" height="50.96" style="fill:#D1AE54"></rect><path d="M250.23,168.6l.18,14.62.12,14.61c.09,9.75.11,19.49.13,29.24l-.43-.43h22l22,.05,22,.14,22,.25-22,.25-22,.14-22,0-22,0h-.42v-.42q0-14.62.12-29.24l.13-14.61Z" style="fill:#c7c7c7"></path><rect x="257.34" y="230.16" width="6.85" height="0.62" style="fill:#c7c7c7"></rect><rect x="270.05" y="230.16" width="6.85" height="0.62" style="fill:#c7c7c7"></rect><rect x="282.76" y="230.16" width="6.85" height="0.62" style="fill:#c7c7c7"></rect><rect x="295.47" y="230.16" width="6.85" height="0.62" style="fill:#c7c7c7"></rect><rect x="308.18" y="230.16" width="6.85" height="0.62" style="fill:#c7c7c7"></rect><rect x="320.89" y="230.16" width="6.85" height="0.62" style="fill:#c7c7c7"></rect><path d="M258.11,213.55a83.81,83.81,0,0,0,10-.75A99.83,99.83,0,0,0,278,211a85.56,85.56,0,0,0,18.82-6.63,67.12,67.12,0,0,0,16.45-11.2l.93-.84.88-.89,1.74-1.79c1.08-1.27,2.24-2.48,3.22-3.83a68,68,0,0,0,5.62-8.31l.05,0A60.13,60.13,0,0,1,306,200.14a66.79,66.79,0,0,1-8.72,5.12,85.12,85.12,0,0,1-39.12,8.29Z" style="fill:#263238"></path><polygon points="327.58 182.3 326.63 182.54 325.46 177.86 320.88 179.37 320.58 178.44 326.16 176.61 327.58 182.3" style="fill:#263238"></polygon><rect x="245.85" y="250.06" width="94.22" height="3.81" transform="translate(585.92 503.92) rotate(180)" style="fill:#dbdbdb"></rect><rect x="245.85" y="259.68" width="53.05" height="3.81" transform="translate(544.75 523.17) rotate(180)" style="fill:#dbdbdb"></rect><rect x="266.44" y="155.86" width="53.05" height="3.81" transform="translate(585.92 315.53) rotate(180)" style="fill:#dbdbdb"></rect><polygon points="328.93 324.13 215.63 347.41 185.75 201.97 269.87 184.69 304.74 206.41 328.93 324.13" style="fill:#D1AE54"></polygon><polygon points="328.93 324.13 215.63 347.41 185.75 201.97 269.87 184.69 304.74 206.41 328.93 324.13" style="fill:#fff;opacity:0.8"></polygon><polygon points="269.87 184.69 304.74 206.41 275.56 212.4 269.87 184.69" style="fill:#D1AE54"></polygon><rect x="201.54" y="217.59" width="64.31" height="3.81" transform="translate(506.78 387.47) rotate(168.39)" style="fill:#dbdbdb"></rect><rect x="203.48" y="227.02" width="64.31" height="3.81" transform="translate(512.51 405.74) rotate(168.39)" style="fill:#dbdbdb"></rect><rect x="205.41" y="236.45" width="64.31" height="3.81" transform="translate(518.25 424.01) rotate(168.39)" style="fill:#dbdbdb"></rect><rect x="207.04" y="242.86" width="94.22" height="3.81" transform="translate(552.37 433.37) rotate(168.39)" style="fill:#dbdbdb"></rect><rect x="208.98" y="252.29" width="94.22" height="3.81" transform="matrix(-0.98, 0.2, -0.2, -0.98, 558.11, 451.64)" style="fill:#dbdbdb"></rect><rect x="210.92" y="261.72" width="94.22" height="3.81" transform="translate(563.84 469.91) rotate(168.39)" style="fill:#dbdbdb"></rect><rect x="212.85" y="271.14" width="94.22" height="3.81" transform="translate(569.57 488.18) rotate(168.39)" style="fill:#dbdbdb"></rect><rect x="214.79" y="280.57" width="94.22" height="3.81" transform="translate(575.3 506.45) rotate(168.39)" style="fill:#dbdbdb"></rect><rect x="216.73" y="289.99" width="94.22" height="3.81" transform="translate(581.03 524.72) rotate(168.39)" style="fill:#dbdbdb"></rect><rect x="218.67" y="299.42" width="94.22" height="3.81" transform="translate(586.76 542.99) rotate(168.39)" style="fill:#dbdbdb"></rect><rect x="220.6" y="308.85" width="94.22" height="3.81" transform="translate(592.5 561.26) rotate(168.39)" style="fill:#dbdbdb"></rect><rect x="222.54" y="318.27" width="94.22" height="3.81" transform="translate(598.23 579.53) rotate(168.39)" style="fill:#dbdbdb"></rect><path d="M561.25,218.42l-126.91,9.24c-14.45-54.94,1-109.88-10.23-164.82L551,53.6C565.46,108.54,550,163.48,561.25,218.42Z" style="fill:#ebebeb"></path><path d="M561.25,218.42,434.42,228l-.3,0a2.81,2.81,0,0,1-.08-.31c-14.53-54.93.89-109.87-10.42-164.81,0-.16-.07-.33-.11-.49l.5,0,126.91-9.09.35,0a3.57,3.57,0,0,0,.1.35C565.7,108.52,550.09,163.47,561.25,218.42Zm0,0c-11.4-54.93,4-109.86-10.58-164.79l.44.32-126.9,9.39.39-.54c11.21,55-4.34,109.89,10,164.84l-.39-.29Z" style="fill:#dbdbdb"></path><path d="M439.43,86.38l71.25-5.13q.24,2.11.42,4.23l-71.34,5.14C439.66,89.2,439.55,87.79,439.43,86.38Z" style="fill:#dbdbdb"></path><path d="M440.14,97.07l71.47-5.14q.13,2.11.24,4.23l-71.54,5.14C440.26,99.89,440.2,98.48,440.14,97.07Z" style="fill:#dbdbdb"></path><path d="M440.47,107.75l71.64-5.14c0,1.41.07,2.82.1,4.23L440.51,112C440.51,110.57,440.49,109.16,440.47,107.75Z" style="fill:#dbdbdb"></path><path d="M440.51,118.43l105.13-7.52c0,1.41,0,2.82,0,4.23l-105.19,7.52C440.49,121.25,440.51,119.84,440.51,118.43Z" style="fill:#dbdbdb"></path><path d="M440.37,129.11l105.26-7.52-.06,4.23-105.29,7.53Z" style="fill:#dbdbdb"></path><path d="M440.12,139.8l105.32-7.53c0,1.41-.06,2.82-.1,4.23L440,144C440.05,142.62,440.09,141.21,440.12,139.8Z" style="fill:#dbdbdb"></path><path d="M439.87,150.48,545.18,143c0,1.41-.06,2.83-.1,4.24l-105.29,7.52C439.82,153.3,439.84,151.89,439.87,150.48Z" style="fill:#dbdbdb"></path><path d="M439.71,161.16,545,153.64c0,1.41-.05,2.82-.07,4.23l-105.2,7.52C439.69,164,439.69,162.57,439.71,161.16Z" style="fill:#dbdbdb"></path><path d="M439.72,171.84l105.1-7.52c0,1.41,0,2.82,0,4.23l-105,7.53C439.76,174.67,439.74,173.26,439.72,171.84Z" style="fill:#dbdbdb"></path><path d="M440,182.53,544.91,175c0,1.41.06,2.82.11,4.24l-104.81,7.52Q440.09,184.65,440,182.53Z" style="fill:#dbdbdb"></path><path d="M440.65,193.21l104.64-7.53c.07,1.42.16,2.83.25,4.24L441,197.44C440.88,196,440.76,194.62,440.65,193.21Z" style="fill:#dbdbdb"></path><path d="M441.75,203.89l104.31-7.52c.13,1.41.27,2.82.43,4.23l-104.16,7.53C442.12,206.72,441.93,205.3,441.75,203.89Z" style="fill:#dbdbdb"></path><path d="M543.2,277.23Q477.56,266.1,413.41,255C419,200.71,446.4,146.46,445,92.21q65.64,11.13,129.79,22.26C569.24,168.72,541.8,223,543.2,277.23Z" style="fill:#D1AE54"></path><path d="M543.2,277.23Q477.56,266.1,413.41,255C419,200.71,446.4,146.46,445,92.21q65.64,11.13,129.79,22.26C569.24,168.72,541.8,223,543.2,277.23Z" style="fill:#fff;opacity:0.8"></path><path d="M455.76,118.36q35.58,6.19,70.83,12.38c-.24,1.4-.49,2.79-.75,4.18q-35.18-6.18-70.63-12.38C455.41,121.15,455.59,119.76,455.76,118.36Z" style="fill:#dbdbdb"></path><path d="M454.24,128.91q35.29,6.19,70.33,12.38c-.3,1.4-.6,2.79-.91,4.18q-34.95-6.18-70.15-12.38C453.76,131.7,454,130.31,454.24,128.91Z" style="fill:#dbdbdb"></path><path d="M452.28,139.46l69.92,12.38c-.34,1.39-.67,2.79-1,4.18q-34.8-6.2-69.78-12.38C451.7,142.25,452,140.86,452.28,139.46Z" style="fill:#dbdbdb"></path><path d="M450,150q51.12,9.08,101.9,18.14c-.37,1.39-.75,2.78-1.13,4.18Q500,163.26,449,154.19C449.3,152.8,449.63,151.41,450,150Z" style="fill:#dbdbdb"></path><path d="M447.37,160.56Q498.29,169.64,549,178.7c-.38,1.39-.76,2.78-1.15,4.18L446.29,164.74C446.65,163.35,447,162,447.37,160.56Z" style="fill:#dbdbdb"></path><path d="M444.59,171.11l101.49,18.14c-.38,1.39-.77,2.78-1.15,4.18L443.46,175.29C443.84,173.9,444.22,172.5,444.59,171.11Z" style="fill:#dbdbdb"></path><path d="M441.71,181.66l101.5,18.14c-.38,1.39-.75,2.78-1.12,4.17q-50.84-9.06-101.54-18.13C440.94,184.45,441.32,183.05,441.71,181.66Z" style="fill:#dbdbdb"></path><path d="M438.8,192.21q50.74,9.06,101.65,18.13c-.35,1.4-.7,2.79-1,4.18q-51-9.06-101.76-18.13C438,195,438.41,193.6,438.8,192.21Z" style="fill:#dbdbdb"></path><path d="M436,202.76q50.82,9.06,101.94,18.13c-.32,1.4-.63,2.79-.94,4.18q-51.24-9.06-102.1-18.13C435.21,205.54,435.58,204.15,436,202.76Z" style="fill:#dbdbdb"></path><path d="M433.24,213.31q51,9.06,102.38,18.13c-.28,1.4-.54,2.79-.8,4.18q-51.57-9.06-102.6-18.13C432.55,216.09,432.89,214.7,433.24,213.31Z" style="fill:#dbdbdb"></path><path d="M430.75,223.85q51.22,9.08,103,18.14c-.23,1.39-.44,2.79-.64,4.18Q481.15,237.11,429.85,228C430.14,226.64,430.44,225.25,430.75,223.85Z" style="fill:#dbdbdb"></path><path d="M428.57,234.4q51.53,9.07,103.69,18.14c-.16,1.39-.3,2.79-.43,4.18q-52.4-9.08-104-18.14C428.06,237.19,428.31,235.8,428.57,234.4Z" style="fill:#dbdbdb"></path></g><g id="freepik--Folder--inject-14"><rect x="265.97" y="254.99" width="224.29" height="162.58" style="fill:#D1AE54"></rect><polygon points="345.22 238.15 265.97 238.15 265.97 254.99 349.77 254.99 345.22 238.15" style="fill:#D1AE54"></polygon><g style="opacity:0.1"><rect x="265.97" y="254.99" width="224.29" height="162.58"></rect><polygon points="345.22 238.15 265.97 238.15 265.97 254.99 349.77 254.99 345.22 238.15"></polygon></g><path d="M488.73,356.73c-43.79-12.53-86.6-24.91-128.75-37.17,10.6-49.55,40.3-98.09,42.32-148.37C446.05,183,488.83,194.81,531,206.67,520.21,257,490.55,306,488.73,356.73Z" style="fill:#ebebeb"></path><path d="M488.73,356.73C444.94,344.3,402.1,332,359.92,319.84l-.31-.09.06-.28c10.56-49.56,40.2-98.12,42.12-148.42,0-.15,0-.31,0-.46l.51.14c43.78,11.84,86.58,23.71,128.7,35.62l.35.1c0,.1,0,.21-.07.32C520.42,257.09,490.67,306.08,488.73,356.73Zm0,0C490.43,306,520,257,530.61,206.57c.09.14.18.28.28.42C488.77,195.18,446,183.4,402.28,171.64l.53-.32c-2.13,50.27-31.88,98.79-42.53,148.32l-.24-.36C402.15,331.63,445,344.11,488.73,356.73Z" style="fill:#dbdbdb"></path><path d="M481.8,264.67c-6.51,17.39-26.24,27.08-44.65,21.64s-28.06-23.81-21.71-41.1,25.34-27.13,44-21.8S488.39,247.27,481.8,264.67Z" style="fill:#455a64"></path><path d="M448.64,254.92c-7.55,8.62-15.19,17.22-22.64,25.82a30.74,30.74,0,0,1-10.56-35.53c6.26-17.21,25.46-27.1,44-21.8s28.93,24,22.38,41.26Q465.23,259.78,448.64,254.92Z" style="fill:#dbdbdb"></path><path d="M448.64,254.92c6.58,8.85,13.09,17.7,19.74,26.58a37.32,37.32,0,0,1-31.23,4.81c-18.38-5.39-28-23.92-21.71-41.1s25.46-27.1,44-21.8,28.93,24,22.38,41.26Q465.23,259.78,448.64,254.92Z" style="fill:#dbdbdb"></path><path d="M448.64,254.92l-34.79,5.8a31.63,31.63,0,0,1,1.59-15.51c6.26-17.21,25.46-27.1,44-21.8s28.93,24,22.38,41.26Q465.23,259.78,448.64,254.92Z" style="fill:#D1AE54"></path><path d="M412.2,193q26.67,7.41,52.95,14.83c-.31,1.29-.62,2.57-.95,3.85q-26.2-7.43-52.72-14.84C411.73,195.56,412,194.28,412.2,193Z" style="fill:#dbdbdb"></path><path d="M408.19,292.06q35.13,10.37,70.64,20.81c-.35,1.28-.7,2.56-1,3.84q-35.67-10.47-70.86-20.84C407.35,294.6,407.77,293.33,408.19,292.06Z" style="fill:#dbdbdb"></path><path d="M405.13,301.67q35.36,10.4,71.21,20.9c-.3,1.28-.59,2.57-.87,3.85q-36-10.53-71.47-20.94C404.37,304.21,404.74,302.94,405.13,301.67Z" style="fill:#dbdbdb"></path><path d="M402.39,311.29q35.64,10.45,71.9,21c-.24,1.28-.47,2.57-.68,3.86q-36.45-10.59-72.21-21.05C401.72,313.84,402.05,312.56,402.39,311.29Z" style="fill:#dbdbdb"></path><path d="M394.34,292.16l-8.52-2.5,1.29-3.8,8.51,2.51C395.19,289.63,394.76,290.9,394.34,292.16Z" style="fill:#D1AE54"></path><path d="M391.31,301.76l-8.58-2.52c.39-1.26.79-2.53,1.19-3.8l8.56,2.52C392.08,299.22,391.69,300.49,391.31,301.76Z" style="fill:#455a64"></path><path d="M388.61,311.37,380,308.84c.34-1.27.69-2.53,1.05-3.8l8.62,2.52Q389.1,309.46,388.61,311.37Z" style="fill:#dbdbdb"></path><polygon points="489.67 417.57 265.38 417.57 248.08 268.48 472.37 268.48 489.67 417.57" style="fill:#D1AE54"></polygon><polygon points="325.54 253.04 246.29 253.04 248.08 268.48 331.88 268.48 325.54 253.04" style="fill:#D1AE54"></polygon><path d="M401.46,154.36a14.39,14.39,0,0,1-.5-4,14,14,0,0,1,.5-4,16.21,16.21,0,0,1,0,8Z" style="fill:#263238"></path><path d="M393.32,156.71a14.68,14.68,0,0,1-2.43-3.21,14.36,14.36,0,0,1-1.56-3.71,14.6,14.6,0,0,1,2.43,3.21A14.36,14.36,0,0,1,393.32,156.71Z" style="fill:#263238"></path><path d="M387.46,162.81a14.36,14.36,0,0,1-3.71-1.56,14.15,14.15,0,0,1-3.21-2.43,14.36,14.36,0,0,1,3.71,1.56A14.92,14.92,0,0,1,387.46,162.81Z" style="fill:#263238"></path><path d="M385.43,171a16.21,16.21,0,0,1-8,0,16.53,16.53,0,0,1,8,0Z" style="fill:#263238"></path><path d="M387.78,179.17a14.6,14.6,0,0,1-3.21,2.43,14.36,14.36,0,0,1-3.71,1.56,16.15,16.15,0,0,1,6.92-4Z" style="fill:#263238"></path><path d="M393.88,185a14.51,14.51,0,0,1-1.56,3.71,14.32,14.32,0,0,1-2.43,3.2,14.29,14.29,0,0,1,1.56-3.7A14.45,14.45,0,0,1,393.88,185Z" style="fill:#263238"></path><path d="M402.1,187.07a16.17,16.17,0,0,1,0,8,16.17,16.17,0,0,1,0-8Z" style="fill:#263238"></path><path d="M410.24,184.71a14.92,14.92,0,0,1,2.43,3.21,14.36,14.36,0,0,1,1.56,3.71,14.15,14.15,0,0,1-2.43-3.21A14.36,14.36,0,0,1,410.24,184.71Z" style="fill:#263238"></path><path d="M416.11,178.61a14.29,14.29,0,0,1,3.7,1.56A14.45,14.45,0,0,1,423,182.6a16,16,0,0,1-6.91-4Z" style="fill:#263238"></path><path d="M418.13,170.39a14.87,14.87,0,0,1,4-.5,14,14,0,0,1,4,.5,14,14,0,0,1-4,.5A14.87,14.87,0,0,1,418.13,170.39Z" style="fill:#263238"></path><path d="M415.78,162.26a14.6,14.6,0,0,1,3.21-2.43,14,14,0,0,1,3.71-1.57,14.15,14.15,0,0,1-3.21,2.43A14.74,14.74,0,0,1,415.78,162.26Z" style="fill:#263238"></path><path d="M409.68,156.39a14.36,14.36,0,0,1,1.56-3.71,14.15,14.15,0,0,1,2.43-3.21,14.36,14.36,0,0,1-1.56,3.71A14.6,14.6,0,0,1,409.68,156.39Z" style="fill:#263238"></path></g><g id="freepik--Note--inject-14"><path d="M405.54,336.36h51.39a27.41,27.41,0,0,0,2.55-10.23V285H408.09v41.7C408.09,330.83,405.54,336.36,405.54,336.36Z" style="fill:#455a64"></path><path d="M414.38,297.12c6-.5,12.09-.61,18.13-.64s12.09.14,18.13.64c-6,.49-12.09.61-18.13.63S420.42,297.61,414.38,297.12Z" style="fill:#fff"></path><path d="M414.38,303.89c5.44-.49,10.87-.61,16.31-.64s10.87.14,16.3.64c-5.43.5-10.87.61-16.3.64S419.82,304.39,414.38,303.89Z" style="fill:#fff"></path><path d="M414.38,310.67c4.75-.5,9.51-.61,14.26-.64a141.93,141.93,0,0,1,14.27.64c-4.76.49-9.51.61-14.27.63S419.13,311.16,414.38,310.67Z" style="fill:#fff"></path><path d="M414.38,317.44c6-.49,12.09-.61,18.13-.64s12.09.14,18.13.64c-6,.5-12.09.61-18.13.64S420.42,317.94,414.38,317.44Z" style="fill:#fff"></path></g></svg>